<?xml version="1.0" standalone="no"?>
<!DOCTYPE svg PUBLIC "-//W3C//DTD SVG 20010904//EN"
 "http://www.w3.org/TR/2001/REC-SVG-20010904/DTD/svg10.dtd">
<svg version="1.0" xmlns="http://www.w3.org/2000/svg"
 width="106.000000pt" height="16.000000pt" viewBox="0 0 106.000000 16.000000"
 preserveAspectRatio="xMidYMid meet">
<metadata>
Created by potrace 1.16, written by Peter Selinger 2001-2019
</metadata>
<g transform="translate(0.000000,16.000000) scale(0.100000,-0.100000)"
fill="#000000" stroke="none">
<path d="M122 148 c-7 -7 -12 -18 -12 -24 0 -7 -4 -15 -8 -18 -5 -3 -8 5 -8
17 1 34 -40 36 -56 3 -6 -14 -17 -26 -25 -26 -7 0 -13 -4 -13 -10 0 -5 5 -10
10 -10 6 0 10 -10 10 -22 0 -38 15 -50 60 -51 31 -1 46 5 56 18 12 16 14 16
14 3 0 -20 19 -27 45 -18 11 4 28 3 37 -1 22 -12 93 16 83 31 -4 6 -13 9 -21
6 -9 -4 -13 2 -11 17 4 38 -41 35 -76 -5 -17 -20 -24 -24 -18 -11 15 30 14 43
-3 43 -11 0 -13 9 -9 35 5 32 4 35 -19 35 -13 0 -29 -5 -36 -12z"/>
<path d="M547 142 c-8 -10 -19 -26 -25 -38 -8 -16 -18 -20 -42 -16 -16 2 -37
-1 -45 -8 -10 -9 -15 -9 -15 -1 0 15 -53 14 -68 -1 -7 -7 -12 -22 -12 -35 0
-28 34 -44 66 -33 11 5 27 5 34 0 20 -13 54 4 61 31 7 23 7 23 8 2 1 -12 6
-25 12 -29 7 -4 66 -6 133 -5 137 2 135 2 196 1 74 -2 80 -1 90 23 l9 22 0
-22 c1 -29 21 -40 36 -20 7 10 26 17 44 17 21 0 31 5 31 15 0 8 -7 15 -15 15
-8 0 -15 6 -15 14 0 9 -17 13 -63 13 -85 0 -107 8 -107 39 0 32 -34 32 -56 0
-8 -14 -30 -28 -47 -32 -18 -3 -38 -11 -44 -16 -9 -7 -13 -7 -13 1 0 6 -14 11
-30 11 -27 0 -30 2 -20 19 21 40 13 50 -39 49 -33 0 -54 -5 -64 -16z"/>
</g>
</svg>
